# xmcd
#
# Track frame offsets: 
#        150
#        12200
#        24672
#        36555
#        52750
#        63557
#        76280
#        89275
#        99865
#        115425
#        124387
#        135072
#        158225
#        173135
#        184462
#        211392
#        225442
#        256585
#        266817
#        275145
#        289042
#        308812
#
# Disc length: 4251 seconds
#
# Revision: 0
# Processed by: cddbd v1.5.2PL0 Copyright (c) Steve Scherf et al.
# Submitted via: ExactAudioCopy v0.95b4
#
DISCID=31109916
DTITLE=Bem-Te-Vi de Pernambuco and Passarinho de Alagoas - Os Campeões d
DTITLE=a Embolada
DYEAR=1900
DGENRE=Avantgarde
TTITLE0=O bicho cabeludo
TTITLE1=Coco de Mané fu
TTITLE2=Só entrego a rola a ela
TTITLE3=Pacote da mulher
TTITLE4=O redondo dela
TTITLE5=Desafio em dez
TTITLE6=A pinguela de Maria
TTITLE7=Coco de gatinha
TTITLE8=Coco do Portelão
TTITLE9=Coco da meninas
TTITLE10=Uma embolada livre
TTITLE11=O coco do juazeiro
TTITLE12=Bate o pandeiro
TTITLE13=Caju não é cajarana
TTITLE14=A chegada de Lampião
TTITLE15=Quando eu ia ela voltava
TTITLE16=Vida e a morte de Simão
TTITLE17=Coco do Tata
TTITLE18=Coco da natureza
TTITLE19=Pagode alagoano
TTITLE20=Nascimento de Bem-Te-Vi
TTITLE21=A violência está demais
EXTD=
EXTT0=
EXTT1=
EXTT2=
EXTT3=
EXTT4=
EXTT5=
EXTT6=
EXTT7=
EXTT8=
EXTT9=
EXTT10=
EXTT11=
EXTT12=
EXTT13=
EXTT14=
EXTT15=
EXTT16=
EXTT17=
EXTT18=
EXTT19=
EXTT20=
EXTT21=
PLAYORDER=
